<svg width="70" height="20" viewBox="0 0 70 20" fill="none" xmlns="http://www.w3.org/2000/svg">
<path d="M25.868 12.14H22.22L21.548 14H20.396L23.42 5.684H24.68L27.692 14H26.54L25.868 12.14ZM25.556 11.252L24.044 7.028L22.532 11.252H25.556ZM32.2139 7.304C33.0139 7.304 33.6619 7.548 34.1579 8.036C34.6539 8.516 34.9019 9.212 34.9019 10.124V14H33.8219V10.28C33.8219 9.624 33.6579 9.124 33.3299 8.78C33.0019 8.428 32.5539 8.252 31.9859 8.252C31.4099 8.252 30.9499 8.432 30.6059 8.792C30.2699 9.152 30.1019 9.676 30.1019 10.364V14H29.0099V7.424H30.1019V8.36C30.3179 8.024 30.6099 7.764 30.9779 7.58C31.3539 7.396 31.7659 7.304 32.2139 7.304ZM36.2777 10.688C36.2777 10.016 36.4137 9.428 36.6857 8.924C36.9577 8.412 37.3297 8.016 37.8017 7.736C38.2817 7.456 38.8137 7.316 39.3977 7.316C39.9737 7.316 40.4737 7.44 40.8977 7.688C41.3217 7.936 41.6377 8.248 41.8457 8.624V7.424H42.9497V14H41.8457V12.776C41.6297 13.16 41.3057 13.48 40.8737 13.736C40.4497 13.984 39.9537 14.108 39.3857 14.108C38.8017 14.108 38.2737 13.964 37.8017 13.676C37.3297 13.388 36.9577 12.984 36.6857 12.464C36.4137 11.944 36.2777 11.352 36.2777 10.688ZM41.8457 10.7C41.8457 10.204 41.7457 9.772 41.5457 9.404C41.3457 9.036 41.0737 8.756 40.7297 8.564C40.3937 8.364 40.0217 8.264 39.6137 8.264C39.2057 8.264 38.8337 8.36 38.4977 8.552C38.1617 8.744 37.8937 9.024 37.6937 9.392C37.4937 9.76 37.3937 10.192 37.3937 10.688C37.3937 11.192 37.4937 11.632 37.6937 12.008C37.8937 12.376 38.1617 12.66 38.4977 12.86C38.8337 13.052 39.2057 13.148 39.6137 13.148C40.0217 13.148 40.3937 13.052 40.7297 12.86C41.0737 12.66 41.3457 12.376 41.5457 12.008C41.7457 11.632 41.8457 11.196 41.8457 10.7ZM45.8871 5.12V14H44.7951V5.12H45.8871ZM53.4122 7.424L49.4522 17.096H48.3242L49.6202 13.928L46.9682 7.424H48.1802L50.2442 12.752L52.2842 7.424H53.4122ZM56.8379 14.108C56.3339 14.108 55.8819 14.024 55.4819 13.856C55.0819 13.68 54.7659 13.44 54.5339 13.136C54.3019 12.824 54.1739 12.468 54.1499 12.068H55.2779C55.3099 12.396 55.4619 12.664 55.7339 12.872C56.0139 13.08 56.3779 13.184 56.8259 13.184C57.2419 13.184 57.5699 13.092 57.8099 12.908C58.0499 12.724 58.1699 12.492 58.1699 12.212C58.1699 11.924 58.0419 11.712 57.7859 11.576C57.5299 11.432 57.1339 11.292 56.5979 11.156C56.1099 11.028 55.7099 10.9 55.3979 10.772C55.0939 10.636 54.8299 10.44 54.6059 10.184C54.3899 9.92 54.2819 9.576 54.2819 9.152C54.2819 8.816 54.3819 8.508 54.5819 8.228C54.7819 7.948 55.0659 7.728 55.4339 7.568C55.8019 7.4 56.2219 7.316 56.6939 7.316C57.4219 7.316 58.0099 7.5 58.4579 7.868C58.9059 8.236 59.1459 8.74 59.1779 9.38H58.0859C58.0619 9.036 57.9219 8.76 57.6659 8.552C57.4179 8.344 57.0819 8.24 56.6579 8.24C56.2659 8.24 55.9539 8.324 55.7219 8.492C55.4899 8.66 55.3739 8.88 55.3739 9.152C55.3739 9.368 55.4419 9.548 55.5779 9.692C55.7219 9.828 55.8979 9.94 56.1059 10.028C56.3219 10.108 56.6179 10.2 56.9939 10.304C57.4659 10.432 57.8499 10.56 58.1459 10.688C58.4419 10.808 58.6939 10.992 58.9019 11.24C59.1179 11.488 59.2299 11.812 59.2379 12.212C59.2379 12.572 59.1379 12.896 58.9379 13.184C58.7379 13.472 58.4539 13.7 58.0859 13.868C57.7259 14.028 57.3099 14.108 56.8379 14.108ZM61.3435 6.356C61.1355 6.356 60.9595 6.284 60.8155 6.14C60.6715 5.996 60.5995 5.82 60.5995 5.612C60.5995 5.404 60.6715 5.228 60.8155 5.084C60.9595 4.94 61.1355 4.868 61.3435 4.868C61.5435 4.868 61.7115 4.94 61.8475 5.084C61.9915 5.228 62.0635 5.404 62.0635 5.612C62.0635 5.82 61.9915 5.996 61.8475 6.14C61.7115 6.284 61.5435 6.356 61.3435 6.356ZM61.8715 7.424V14H60.7795V7.424H61.8715ZM66.0606 14.108C65.5566 14.108 65.1046 14.024 64.7046 13.856C64.3046 13.68 63.9886 13.44 63.7566 13.136C63.5246 12.824 63.3966 12.468 63.3726 12.068H64.5006C64.5326 12.396 64.6846 12.664 64.9566 12.872C65.2366 13.08 65.6006 13.184 66.0486 13.184C66.4646 13.184 66.7926 13.092 67.0326 12.908C67.2726 12.724 67.3926 12.492 67.3926 12.212C67.3926 11.924 67.2646 11.712 67.0086 11.576C66.7526 11.432 66.3566 11.292 65.8206 11.156C65.3326 11.028 64.9326 10.9 64.6206 10.772C64.3166 10.636 64.0526 10.44 63.8286 10.184C63.6126 9.92 63.5046 9.576 63.5046 9.152C63.5046 8.816 63.6046 8.508 63.8046 8.228C64.0046 7.948 64.2886 7.728 64.6566 7.568C65.0246 7.4 65.4446 7.316 65.9166 7.316C66.6446 7.316 67.2326 7.5 67.6806 7.868C68.1286 8.236 68.3686 8.74 68.4006 9.38H67.3086C67.2846 9.036 67.1446 8.76 66.8886 8.552C66.6406 8.344 66.3046 8.24 65.8806 8.24C65.4886 8.24 65.1766 8.324 64.9446 8.492C64.7126 8.66 64.5966 8.88 64.5966 9.152C64.5966 9.368 64.6646 9.548 64.8006 9.692C64.9446 9.828 65.1206 9.94 65.3286 10.028C65.5446 10.108 65.8406 10.2 66.2166 10.304C66.6886 10.432 67.0726 10.56 67.3686 10.688C67.6646 10.808 67.9166 10.992 68.1246 11.24C68.3406 11.488 68.4526 11.812 68.4606 12.212C68.4606 12.572 68.3606 12.896 68.1606 13.184C67.9606 13.472 67.6766 13.7 67.3086 13.868C66.9486 14.028 66.5326 14.108 66.0606 14.108Z" fill="#182135"/>
<path d="M0 15.8936L5.53214 10.3541L8.48261 13.3045L13.7123 7.42571L14.7524 8.46575L8.48261 15.5174L5.53214 12.5669L1.10643 17L0 15.8936ZM1.10643 12.5743L5.53214 8.1412L8.48261 11.0917L14.7524 4.04004L13.7123 3L8.48261 8.87882L5.53214 5.92835L0 11.4679L1.10643 12.5743Z" fill="black"/>
</svg>
