<svg width="29" height="335" viewBox="0 0 29 335" fill="none" xmlns="http://www.w3.org/2000/svg">
<line x1="15.5" y1="4.37114e-08" x2="15.5" y2="24" stroke="black" stroke-opacity="0.1" stroke-width="2"/>
<line x1="15.5" y1="53.5" x2="15.5" y2="77.5" stroke="black" stroke-opacity="0.1" stroke-width="2"/>
<line x1="15.5" y1="107" x2="15.5" y2="131" stroke="black" stroke-opacity="0.1" stroke-width="2"/>
<line x1="15.5" y1="160.5" x2="15.5" y2="184.5" stroke="black" stroke-opacity="0.1" stroke-width="2"/>
<line x1="15.5" y1="214" x2="15.5" y2="238" stroke="black" stroke-opacity="0.1" stroke-width="2"/>
<path d="M15.2071 266.793C14.8166 266.402 14.1834 266.402 13.7929 266.793L7.42893 273.157C7.03841 273.547 7.03841 274.181 7.42893 274.571C7.81946 274.962 8.45262 274.962 8.84315 274.571L14.5 268.914L20.1569 274.571C20.5474 274.962 21.1805 274.962 21.5711 274.571C21.9616 274.181 21.9616 273.547 21.5711 273.157L15.2071 266.793ZM15.5 291.5L15.5 267.5H13.5L13.5 291.5H15.5Z" fill="black" fill-opacity="0.1"/>
<path d="M0.7825 332V323.6H6.0505V325.064H2.2465V326.768H5.2645V328.232H2.2465V330.536H6.0505V332H0.7825ZM12.8644 328.208V332H11.4004V328.592C11.4004 328.356 11.3424 328.142 11.2264 327.95C11.1104 327.754 10.9544 327.6 10.7584 327.488C10.5664 327.372 10.3524 327.314 10.1164 327.314C9.88044 327.314 9.66444 327.372 9.46844 327.488C9.27644 327.6 9.12244 327.754 9.00644 327.95C8.89444 328.142 8.83844 328.356 8.83844 328.592V332H7.37444L7.36844 326H8.83244L8.83844 326.534C9.04244 326.318 9.28644 326.148 9.57044 326.024C9.85444 325.896 10.1604 325.832 10.4884 325.832C10.9244 325.832 11.3224 325.94 11.6824 326.156C12.0424 326.368 12.3284 326.654 12.5404 327.014C12.7564 327.37 12.8644 327.768 12.8644 328.208ZM17.2758 327.464H16.1118V332H14.6478V327.464H13.7598V326H14.6478V324.116H16.1118V326H17.2758V327.464ZM18.3666 332L18.3606 326H19.8246L19.8306 326.534C20.0346 326.318 20.2786 326.148 20.5626 326.024C20.8466 325.896 21.1526 325.832 21.4806 325.832C21.7006 325.832 21.9206 325.864 22.1406 325.928L21.5646 327.404C21.4126 327.344 21.2606 327.314 21.1086 327.314C20.8726 327.314 20.6566 327.372 20.4606 327.488C20.2686 327.6 20.1146 327.754 19.9986 327.95C19.8866 328.142 19.8306 328.356 19.8306 328.592V332H18.3666ZM26.9063 326H28.4603L25.1783 335H23.6243L24.7103 332L22.5503 326H24.1523L25.4423 329.996L26.9063 326Z" fill="#212121"/>
</svg>
