<svg width="42" height="41" viewBox="0 0 42 41" fill="none" xmlns="http://www.w3.org/2000/svg">
<rect x="22" width="20" height="20" rx="4" fill="white"/>
<rect x="22.5" y="0.5" width="19" height="19" rx="3.5" stroke="black" stroke-opacity="0.1"/>
<mask id="path-3-inside-1_322_695" fill="white">
<path d="M32.306 6.50586C31.8958 6.50586 31.5286 6.58008 31.2044 6.72852C30.8841 6.87695 30.6126 7.0918 30.39 7.37305C30.1673 7.65039 29.9974 7.98828 29.8802 8.38672C29.763 8.78125 29.7044 9.22656 29.7044 9.72266C29.7044 10.3867 29.7982 10.959 29.9857 11.4395C30.1732 11.916 30.4583 12.2832 30.8411 12.541C31.224 12.7949 31.7083 12.9219 32.2943 12.9219C32.6576 12.9219 33.0111 12.8867 33.3548 12.8164C33.6986 12.7461 34.054 12.6504 34.4212 12.5293V13.7246C34.0736 13.8613 33.722 13.9609 33.3665 14.0234C33.0111 14.0859 32.6009 14.1172 32.1361 14.1172C31.2611 14.1172 30.5345 13.9355 29.9564 13.5723C29.3822 13.209 28.9525 12.6973 28.6673 12.0371C28.3861 11.377 28.2454 10.6035 28.2454 9.7168C28.2454 9.06836 28.3353 8.47461 28.515 7.93555C28.6947 7.39648 28.9564 6.93164 29.3001 6.54102C29.6439 6.14648 30.0677 5.84375 30.5716 5.63281C31.0794 5.41797 31.6595 5.31055 32.3119 5.31055C32.7415 5.31055 33.1634 5.35938 33.5775 5.45703C33.9954 5.55078 34.3822 5.68555 34.7376 5.86133L34.2454 7.02148C33.9486 6.88086 33.638 6.75977 33.3138 6.6582C32.9896 6.55664 32.6536 6.50586 32.306 6.50586Z"/>
</mask>
<path d="M32.306 6.50586C31.8958 6.50586 31.5286 6.58008 31.2044 6.72852C30.8841 6.87695 30.6126 7.0918 30.39 7.37305C30.1673 7.65039 29.9974 7.98828 29.8802 8.38672C29.763 8.78125 29.7044 9.22656 29.7044 9.72266C29.7044 10.3867 29.7982 10.959 29.9857 11.4395C30.1732 11.916 30.4583 12.2832 30.8411 12.541C31.224 12.7949 31.7083 12.9219 32.2943 12.9219C32.6576 12.9219 33.0111 12.8867 33.3548 12.8164C33.6986 12.7461 34.054 12.6504 34.4212 12.5293V13.7246C34.0736 13.8613 33.722 13.9609 33.3665 14.0234C33.0111 14.0859 32.6009 14.1172 32.1361 14.1172C31.2611 14.1172 30.5345 13.9355 29.9564 13.5723C29.3822 13.209 28.9525 12.6973 28.6673 12.0371C28.3861 11.377 28.2454 10.6035 28.2454 9.7168C28.2454 9.06836 28.3353 8.47461 28.515 7.93555C28.6947 7.39648 28.9564 6.93164 29.3001 6.54102C29.6439 6.14648 30.0677 5.84375 30.5716 5.63281C31.0794 5.41797 31.6595 5.31055 32.3119 5.31055C32.7415 5.31055 33.1634 5.35938 33.5775 5.45703C33.9954 5.55078 34.3822 5.68555 34.7376 5.86133L34.2454 7.02148C33.9486 6.88086 33.638 6.75977 33.3138 6.6582C32.9896 6.55664 32.6536 6.50586 32.306 6.50586Z" fill="black" fill-opacity="0.1"/>
<path d="M31.2044 6.72852L30.7881 5.81927L30.784 5.8212L31.2044 6.72852ZM30.39 7.37305L31.1698 7.99909L31.174 7.99375L30.39 7.37305ZM29.8802 8.38672L30.8388 8.67145L30.8396 8.66889L29.8802 8.38672ZM29.9857 11.4395L29.0541 11.803L29.0551 11.8056L29.9857 11.4395ZM30.8411 12.541L30.2825 13.3705L30.2884 13.3744L30.8411 12.541ZM34.4212 12.5293H35.4212V11.1465L34.108 11.5796L34.4212 12.5293ZM34.4212 13.7246L34.7872 14.6552L35.4212 14.4059V13.7246H34.4212ZM29.9564 13.5723L29.4217 14.4173L29.4243 14.419L29.9564 13.5723ZM28.6673 12.0371L27.7473 12.4291L27.7493 12.4336L28.6673 12.0371ZM29.3001 6.54102L30.0509 7.20165L30.0541 7.19793L29.3001 6.54102ZM30.5716 5.63281L30.9578 6.55526L30.9613 6.55378L30.5716 5.63281ZM33.5775 5.45703L33.3479 6.43039L33.3586 6.43279L33.5775 5.45703ZM34.7376 5.86133L35.6582 6.25188L36.0267 5.38321L35.1809 4.96494L34.7376 5.86133ZM34.2454 7.02148L33.8174 7.92522L34.7591 8.37129L35.166 7.41203L34.2454 7.02148ZM32.306 5.50586C31.7737 5.50586 31.2612 5.60268 30.7882 5.81928L31.6207 7.63775C31.7961 7.55747 32.018 7.50586 32.306 7.50586V5.50586ZM30.784 5.8212C30.3194 6.03651 29.9241 6.35048 29.6059 6.75234L31.174 7.99375C31.3012 7.83311 31.4489 7.71739 31.6249 7.63583L30.784 5.8212ZM29.6102 6.74701C29.2933 7.14174 29.0688 7.60159 28.9208 8.10455L30.8396 8.66889C30.926 8.37498 31.0414 8.15904 31.1698 7.99908L29.6102 6.74701ZM28.9216 8.10198C28.772 8.60561 28.7044 9.14924 28.7044 9.72266H30.7044C30.7044 9.30388 30.754 8.95689 30.8388 8.67145L28.9216 8.10198ZM28.7044 9.72266C28.7044 10.477 28.8104 11.1786 29.0541 11.803L30.9173 11.0759C30.7859 10.7393 30.7044 10.2964 30.7044 9.72266H28.7044ZM29.0551 11.8056C29.3083 12.4491 29.7134 12.9872 30.2825 13.3705L31.3997 11.7116C31.2032 11.5792 31.038 11.3829 30.9162 11.0733L29.0551 11.8056ZM30.2884 13.3744C30.8749 13.7633 31.5656 13.9219 32.2943 13.9219V11.9219C31.8511 11.9219 31.5731 11.8265 31.3939 11.7077L30.2884 13.3744ZM32.2943 13.9219C32.7225 13.9219 33.1432 13.8804 33.5552 13.7961L33.1544 11.8367C32.8789 11.893 32.5926 11.9219 32.2943 11.9219V13.9219ZM33.5552 13.7961C33.9407 13.7173 34.3339 13.6111 34.7344 13.479L34.108 11.5796C33.7741 11.6897 33.4564 11.7749 33.1544 11.8367L33.5552 13.7961ZM33.4212 12.5293V13.7246H35.4212V12.5293H33.4212ZM34.0552 12.794C33.7677 12.9071 33.4806 12.988 33.1934 13.0385L33.5397 15.0083C33.9634 14.9338 34.3794 14.8156 34.7872 14.6552L34.0552 12.794ZM33.1934 13.0385C32.9086 13.0886 32.5585 13.1172 32.1361 13.1172V15.1172C32.6433 15.1172 33.1135 15.0833 33.5397 15.0083L33.1934 13.0385ZM32.1361 13.1172C31.397 13.1172 30.868 12.9641 30.4884 12.7256L29.4243 14.419C30.201 14.907 31.1252 15.1172 32.1361 15.1172V13.1172ZM30.491 12.7272C30.097 12.4779 29.7956 12.1274 29.5853 11.6406L27.7493 12.4336C28.1093 13.2671 28.6674 13.9401 29.4217 14.4173L30.491 12.7272ZM29.5873 11.6452C29.3697 11.1345 29.2454 10.4996 29.2454 9.7168H27.2454C27.2454 10.7074 27.4024 11.6195 27.7473 12.4291L29.5873 11.6452ZM29.2454 9.7168C29.2454 9.16091 29.3224 8.67561 29.4637 8.25177L27.5663 7.61932C27.3482 8.27361 27.2454 8.9758 27.2454 9.7168H29.2454ZM29.4637 8.25177C29.605 7.82784 29.8033 7.48296 30.0508 7.20164L28.5494 5.88039C28.1095 6.38032 27.7844 6.96513 27.5663 7.61932L29.4637 8.25177ZM30.0541 7.19793C30.2927 6.92403 30.5888 6.70971 30.9578 6.55525L30.1855 4.71037C29.5466 4.97779 28.995 5.36894 28.5462 5.8841L30.0541 7.19793ZM30.9613 6.55378C31.3254 6.39973 31.7693 6.31055 32.3119 6.31055V4.31055C31.5498 4.31055 30.8335 4.43621 30.182 4.71185L30.9613 6.55378ZM32.3119 6.31055C32.665 6.31055 33.0098 6.35059 33.3479 6.43033L33.807 4.48373C33.317 4.36816 32.818 4.31055 32.3119 4.31055V6.31055ZM33.3586 6.43279C33.7051 6.51049 34.0157 6.61993 34.2944 6.75772L35.1809 4.96494C34.7486 4.75117 34.2858 4.59107 33.7963 4.48128L33.3586 6.43279ZM33.817 5.47078L33.3249 6.63093L35.166 7.41203L35.6582 6.25188L33.817 5.47078ZM34.6735 6.11775C34.3334 5.95664 33.9796 5.81886 33.6127 5.70393L33.0149 7.61248C33.2964 7.70068 33.5637 7.80508 33.8174 7.92522L34.6735 6.11775ZM33.6127 5.70393C33.1895 5.57135 32.7526 5.50586 32.306 5.50586V7.50586C32.5546 7.50586 32.7897 7.54193 33.0149 7.61248L33.6127 5.70393Z" fill="black" fill-opacity="0.1" mask="url(#path-3-inside-1_322_695)"/>
<rect y="21" width="20" height="20" rx="4" fill="black" fill-opacity="0.1"/>
<path d="M7.50326 26.4336H10.0521C11.1576 26.4336 11.9915 26.5938 12.554 26.9141C13.1165 27.2344 13.3978 27.7871 13.3978 28.5723C13.3978 28.9004 13.3392 29.1973 13.222 29.4629C13.1087 29.7246 12.9427 29.9414 12.724 30.1133C12.5052 30.2812 12.2357 30.3945 11.9154 30.4531V30.5117C12.2474 30.5703 12.5423 30.6738 12.8001 30.8223C13.0619 30.9707 13.2669 31.1836 13.4154 31.4609C13.5677 31.7383 13.6439 32.0977 13.6439 32.5391C13.6439 33.0625 13.5189 33.5078 13.2689 33.875C13.0228 34.2422 12.6693 34.5215 12.2083 34.7129C11.7513 34.9043 11.2083 35 10.5794 35H7.50326V26.4336ZM8.90951 29.9668H10.2572C10.8939 29.9668 11.3353 29.8633 11.5814 29.6562C11.8275 29.4492 11.9505 29.1465 11.9505 28.748C11.9505 28.3418 11.804 28.0488 11.5111 27.8691C11.222 27.6895 10.7611 27.5996 10.1283 27.5996H8.90951V29.9668ZM8.90951 31.1035V33.8223H10.3919C11.0482 33.8223 11.5091 33.6953 11.7747 33.4414C12.0404 33.1875 12.1732 32.8438 12.1732 32.4102C12.1732 32.1445 12.1126 31.9141 11.9915 31.7188C11.8744 31.5234 11.681 31.373 11.4115 31.2676C11.1419 31.1582 10.7786 31.1035 10.3216 31.1035H8.90951Z" fill="white"/>
<rect x="22" y="21" width="20" height="20" rx="4" fill="white"/>
<rect x="22.5" y="21.5" width="19" height="19" rx="3.5" stroke="black" stroke-opacity="0.1"/>
<mask id="path-9-inside-2_322_695" fill="white">
<path d="M34.8001 35L33.9622 32.6211H30.6869L29.849 35H28.3665L31.554 26.3984H33.1126L36.2943 35H34.8001ZM33.599 31.4141L32.7845 29.0703C32.7533 28.9688 32.7083 28.8262 32.6497 28.6426C32.5911 28.4551 32.5326 28.2656 32.474 28.0742C32.4154 27.8789 32.3665 27.7148 32.3275 27.582C32.2884 27.7422 32.2396 27.9219 32.181 28.1211C32.1263 28.3164 32.0716 28.5 32.0169 28.6719C31.9661 28.8438 31.9271 28.9766 31.8997 29.0703L31.0794 31.4141H33.599Z"/>
</mask>
<path d="M34.8001 35L33.9622 32.6211H30.6869L29.849 35H28.3665L31.554 26.3984H33.1126L36.2943 35H34.8001ZM33.599 31.4141L32.7845 29.0703C32.7533 28.9688 32.7083 28.8262 32.6497 28.6426C32.5911 28.4551 32.5326 28.2656 32.474 28.0742C32.4154 27.8789 32.3665 27.7148 32.3275 27.582C32.2884 27.7422 32.2396 27.9219 32.181 28.1211C32.1263 28.3164 32.0716 28.5 32.0169 28.6719C31.9661 28.8438 31.9271 28.9766 31.8997 29.0703L31.0794 31.4141H33.599Z" fill="black" fill-opacity="0.1"/>
<path d="M34.8001 35L33.8569 35.3322L34.0921 36H34.8001V35ZM33.9622 32.6211L34.9054 32.2889L34.6702 31.6211H33.9622V32.6211ZM30.6869 32.6211V31.6211H29.9789L29.7436 32.2889L30.6869 32.6211ZM29.849 35V36H30.557L30.7922 35.3322L29.849 35ZM28.3665 35L27.4289 34.6525L26.9295 36H28.3665V35ZM31.554 26.3984V25.3984H30.8582L30.6164 26.051L31.554 26.3984ZM33.1126 26.3984L34.0505 26.0515L33.809 25.3984H33.1126V26.3984ZM36.2943 35V36H37.7304L37.2322 34.6531L36.2943 35ZM33.599 31.4141V32.4141H35.0051L34.5436 31.0858L33.599 31.4141ZM32.7845 29.0703L31.8287 29.3644L31.834 29.3816L31.8399 29.3986L32.7845 29.0703ZM32.6497 28.6426L31.6952 28.9409L31.6971 28.9466L32.6497 28.6426ZM32.474 28.0742L31.5161 28.3616L31.5178 28.3669L32.474 28.0742ZM32.3275 27.582L33.2868 27.2999L32.2373 23.7315L31.356 27.3451L32.3275 27.582ZM32.181 28.1211L31.2215 27.8389L31.218 27.8515L32.181 28.1211ZM32.0169 28.6719L31.064 28.3687L31.0609 28.3786L31.0579 28.3885L32.0169 28.6719ZM31.8997 29.0703L32.8436 29.4007L32.8523 29.3757L32.8597 29.3503L31.8997 29.0703ZM31.0794 31.4141L30.1356 31.0837L29.6699 32.4141H31.0794V31.4141ZM35.7433 34.6678L34.9054 32.2889L33.019 32.9533L33.8569 35.3322L35.7433 34.6678ZM33.9622 31.6211H30.6869V33.6211H33.9622V31.6211ZM29.7436 32.2889L28.9058 34.6678L30.7922 35.3322L31.6301 32.9533L29.7436 32.2889ZM29.849 34H28.3665V36H29.849V34ZM29.3042 35.3475L32.4917 26.7459L30.6164 26.051L27.4289 34.6525L29.3042 35.3475ZM31.554 27.3984H33.1126V25.3984H31.554V27.3984ZM32.1747 26.7454L35.3564 35.3469L37.2322 34.6531L34.0505 26.0515L32.1747 26.7454ZM36.2943 34H34.8001V36H36.2943V34ZM34.5436 31.0858L33.7291 28.7421L31.8399 29.3986L32.6544 31.7423L34.5436 31.0858ZM33.7403 28.7762C33.7075 28.6697 33.6614 28.5233 33.6024 28.3385L31.6971 28.9466C31.7553 29.1291 31.799 29.2678 31.8287 29.3644L33.7403 28.7762ZM33.6042 28.3443C33.5462 28.1587 33.4882 27.9711 33.4302 27.7815L31.5178 28.3669C31.5769 28.5602 31.6361 28.7515 31.6953 28.9409L33.6042 28.3443ZM33.4318 27.7869C33.3735 27.5926 33.3252 27.4304 33.2868 27.2999L31.3681 27.8642C31.4079 27.9993 31.4572 28.1653 31.5161 28.3616L33.4318 27.7869ZM31.356 27.3451C31.3214 27.4868 31.2769 27.651 31.2216 27.8389L33.1404 28.4033C33.2023 28.1927 33.2554 27.9976 33.299 27.819L31.356 27.3451ZM31.218 27.8515C31.1661 28.0369 31.1147 28.2092 31.064 28.3687L32.9699 28.9751C33.0285 28.7908 33.0865 28.5959 33.144 28.3907L31.218 27.8515ZM31.0579 28.3885C31.007 28.5608 30.9676 28.6949 30.9397 28.7903L32.8597 29.3503C32.8866 29.2582 32.9253 29.1267 32.9759 28.9552L31.0579 28.3885ZM30.9559 28.74L30.1356 31.0837L32.0233 31.7444L32.8436 29.4007L30.9559 28.74ZM31.0794 32.4141H33.599V30.4141H31.0794V32.4141Z" fill="black" fill-opacity="0.1" mask="url(#path-9-inside-2_322_695)"/>
<rect width="20" height="20" rx="4" fill="white"/>
<rect x="0.5" y="0.5" width="19" height="19" rx="3.5" stroke="black" stroke-opacity="0.1"/>
<mask id="path-13-inside-3_322_695" fill="white">
<path d="M14.013 9.63477C14.013 10.5996 13.8333 11.4062 13.474 12.0547C13.1146 12.6992 12.5931 13.1855 11.9095 13.5137C11.2259 13.8379 10.4017 14 9.43685 14H7.05794V5.43359H9.69466C10.5814 5.43359 11.347 5.59375 11.9915 5.91406C12.6361 6.23047 13.1341 6.70117 13.4857 7.32617C13.8372 7.94727 14.013 8.7168 14.013 9.63477ZM12.5482 9.67578C12.5482 8.97266 12.4369 8.39453 12.2142 7.94141C11.9954 7.48828 11.6712 7.15234 11.2415 6.93359C10.8158 6.71094 10.2904 6.59961 9.66537 6.59961H8.46419V12.8223H9.46029C10.4954 12.8223 11.2689 12.5586 11.7806 12.0312C12.2923 11.5039 12.5482 10.7188 12.5482 9.67578Z"/>
</mask>
<path d="M14.013 9.63477C14.013 10.5996 13.8333 11.4062 13.474 12.0547C13.1146 12.6992 12.5931 13.1855 11.9095 13.5137C11.2259 13.8379 10.4017 14 9.43685 14H7.05794V5.43359H9.69466C10.5814 5.43359 11.347 5.59375 11.9915 5.91406C12.6361 6.23047 13.1341 6.70117 13.4857 7.32617C13.8372 7.94727 14.013 8.7168 14.013 9.63477ZM12.5482 9.67578C12.5482 8.97266 12.4369 8.39453 12.2142 7.94141C11.9954 7.48828 11.6712 7.15234 11.2415 6.93359C10.8158 6.71094 10.2904 6.59961 9.66537 6.59961H8.46419V12.8223H9.46029C10.4954 12.8223 11.2689 12.5586 11.7806 12.0312C12.2923 11.5039 12.5482 10.7188 12.5482 9.67578Z" fill="black" fill-opacity="0.1"/>
<path d="M13.474 12.0547L14.3474 12.5417L14.3486 12.5394L13.474 12.0547ZM11.9095 13.5137L12.338 14.4172L12.3422 14.4152L11.9095 13.5137ZM7.05794 14H6.05794V15H7.05794V14ZM7.05794 5.43359V4.43359H6.05794V5.43359H7.05794ZM11.9915 5.91406L11.5465 6.80958L11.5509 6.81173L11.9915 5.91406ZM13.4857 7.32617L12.6141 7.81643L12.6154 7.81877L13.4857 7.32617ZM12.2142 7.94141L11.3136 8.37617L11.3167 8.38242L12.2142 7.94141ZM11.2415 6.93359L10.7781 7.8198L10.7879 7.82476L11.2415 6.93359ZM8.46419 6.59961V5.59961H7.46419V6.59961H8.46419ZM8.46419 12.8223H7.46419V13.8223H8.46419V12.8223ZM13.013 9.63477C13.013 10.4797 12.8554 11.1079 12.5993 11.5699L14.3486 12.5394C14.8113 11.7046 15.013 10.7195 15.013 9.63477H13.013ZM12.6006 11.5677C12.3447 12.0266 11.9797 12.3708 11.4768 12.6121L12.3422 14.4152C13.2065 14.0003 13.8845 13.3718 14.3474 12.5417L12.6006 11.5677ZM11.481 12.6101C10.9629 12.8559 10.2929 13 9.43685 13V15C10.5105 15 11.4889 14.8199 12.338 14.4172L11.481 12.6101ZM9.43685 13H7.05794V15H9.43685V13ZM8.05794 14V5.43359H6.05794V14H8.05794ZM7.05794 6.43359H9.69466V4.43359H7.05794V6.43359ZM9.69466 6.43359C10.4621 6.43359 11.0686 6.57208 11.5465 6.80957L12.4366 5.01855C11.6254 4.61542 10.7007 4.43359 9.69466 4.43359V6.43359ZM11.5509 6.81173C12.0141 7.03915 12.3618 7.36792 12.6141 7.81643L14.3573 6.83591C13.9064 6.03442 13.258 5.42179 12.4322 5.01639L11.5509 6.81173ZM12.6154 7.81877C12.861 8.25255 13.013 8.84116 13.013 9.63477H15.013C15.013 8.59244 14.8135 7.64198 14.3559 6.83357L12.6154 7.81877ZM13.5482 9.67578C13.5482 8.8762 13.4229 8.13374 13.1117 7.50039L11.3167 8.38242C11.4508 8.65532 11.5482 9.06911 11.5482 9.67578H13.5482ZM13.1147 7.50666C12.8054 6.86583 12.3287 6.36491 11.6952 6.04243L10.7879 7.82476C11.0138 7.93978 11.1855 8.11073 11.3136 8.37616L13.1147 7.50666ZM11.7049 6.04744C11.0996 5.73091 10.4048 5.59961 9.66537 5.59961V7.59961C10.1759 7.59961 10.5319 7.69096 10.7781 7.81974L11.7049 6.04744ZM9.66537 5.59961H8.46419V7.59961H9.66537V5.59961ZM7.46419 6.59961V12.8223H9.46419V6.59961H7.46419ZM8.46419 13.8223H9.46029V11.8223H8.46419V13.8223ZM9.46029 13.8223C10.6534 13.8223 11.7321 13.5172 12.4983 12.7276L11.0629 11.3349C10.8056 11.6 10.3375 11.8223 9.46029 11.8223V13.8223ZM12.4983 12.7276C13.2552 11.9476 13.5482 10.8692 13.5482 9.67578H11.5482C11.5482 10.5683 11.3294 11.0602 11.0629 11.3349L12.4983 12.7276Z" fill="black" fill-opacity="0.1" mask="url(#path-13-inside-3_322_695)"/>
</svg>
