<svg width="37" height="156" viewBox="0 0 37 156" fill="none" xmlns="http://www.w3.org/2000/svg">
<path d="M19.2071 0.292892C18.8166 -0.0976315 18.1834 -0.0976315 17.7929 0.292892L11.4289 6.65685C11.0384 7.04738 11.0384 7.68054 11.4289 8.07107C11.8195 8.46159 12.4526 8.46159 12.8431 8.07107L18.5 2.41421L24.1569 8.07107C24.5474 8.46159 25.1805 8.46159 25.5711 8.07107C25.9616 7.68054 25.9616 7.04738 25.5711 6.65685L19.2071 0.292892ZM19.5 23L19.5 1H17.5L17.5 23H19.5Z" fill="#BDBDBD"/>
<line x1="19.5" y1="35.5" x2="19.5" y2="57.5" stroke="#BDBDBD" stroke-width="2"/>
<line x1="19.5" y1="70" x2="19.5" y2="92" stroke="#BDBDBD" stroke-width="2"/>
<line x1="19.5" y1="104.5" x2="19.5" y2="126.5" stroke="#BDBDBD" stroke-width="2"/>
<path d="M0.941584 153V142.818H7.80238V144.593H3.09428V147.019H7.4494V148.794H3.09428V151.225H7.82227V153H0.941584ZM11.592 148.585V153H9.47408V145.364H11.4925V146.711H11.582C11.7511 146.267 12.0344 145.915 12.4322 145.657C12.8299 145.395 13.3121 145.264 13.8789 145.264C14.4092 145.264 14.8716 145.38 15.266 145.612C15.6604 145.844 15.967 146.176 16.1857 146.607C16.4045 147.034 16.5138 147.545 16.5138 148.138V153H14.396V148.516C14.3993 148.048 14.2799 147.684 14.038 147.422C13.796 147.157 13.4629 147.024 13.0387 147.024C12.7537 147.024 12.5018 147.085 12.283 147.208C12.0676 147.331 11.8986 147.51 11.7759 147.745C11.6566 147.977 11.5953 148.257 11.592 148.585ZM22.2449 145.364V146.955H17.6461V145.364H22.2449ZM18.6902 143.534H20.8081V150.653C20.8081 150.849 20.8379 151.001 20.8975 151.111C20.9572 151.217 21.0401 151.291 21.1461 151.335C21.2555 151.378 21.3815 151.399 21.524 151.399C21.6234 151.399 21.7228 151.391 21.8223 151.374C21.9217 151.354 21.9979 151.339 22.051 151.33L22.3841 152.906C22.278 152.939 22.1288 152.977 21.9366 153.02C21.7444 153.066 21.5107 153.094 21.2356 153.104C20.7252 153.124 20.2778 153.056 19.8933 152.901C19.5121 152.745 19.2155 152.503 19.0034 152.175C18.7913 151.847 18.6868 151.432 18.6902 150.932V143.534ZM23.6245 153V145.364H25.6777V146.696H25.7573C25.8965 146.222 26.1301 145.864 26.4583 145.622C26.7864 145.377 27.1642 145.254 27.5918 145.254C27.6979 145.254 27.8122 145.261 27.9348 145.274C28.0575 145.287 28.1652 145.306 28.258 145.329V147.208C28.1586 147.178 28.021 147.152 27.8453 147.129C27.6697 147.105 27.5089 147.094 27.3631 147.094C27.0516 147.094 26.7731 147.162 26.5279 147.298C26.2859 147.43 26.0937 147.616 25.9512 147.854C25.812 148.093 25.7424 148.368 25.7424 148.68V153H23.6245ZM30.8929 155.864C30.6245 155.864 30.3726 155.842 30.1373 155.799C29.9052 155.759 29.713 155.708 29.5605 155.645L30.0378 154.064C30.2864 154.14 30.5101 154.182 30.709 154.188C30.9112 154.195 31.0852 154.148 31.231 154.049C31.3801 153.95 31.5011 153.781 31.5939 153.542L31.7182 153.219L28.9789 145.364H31.2061L32.7871 150.972H32.8667L34.4625 145.364H36.7047L33.7367 153.825C33.5942 154.236 33.4003 154.594 33.155 154.899C32.9131 155.207 32.6065 155.444 32.2353 155.61C31.8641 155.779 31.4166 155.864 30.8929 155.864Z" fill="#212121"/>
</svg>
